<svg width="24" height="24" viewBox="0 0 24 24" fill="none" xmlns="http://www.w3.org/2000/svg">
<path d="M22.8677 12.0002C22.8677 18.0027 18.0017 22.8687 11.9993 22.8687C5.99681 22.8687 1.13086 18.0027 1.13086 12.0002C1.13086 5.99779 5.99681 1.13184 11.9993 1.13184C18.0017 1.13184 22.8677 5.99779 22.8677 12.0002ZM3.84099 12.0002C3.84099 16.5059 7.49357 20.1585 11.9993 20.1585C16.505 20.1585 20.1575 16.5059 20.1575 12.0002C20.1575 7.49455 16.505 3.84197 11.9993 3.84197C7.49357 3.84197 3.84099 7.49455 3.84099 12.0002Z" fill="#FCFCFC"/>
<path fill-rule="evenodd" clip-rule="evenodd" d="M12.0002 7C11.2541 7 10.6493 7.60484 10.6493 8.35095V10.6493L8.35095 10.6493C7.60484 10.6493 7 11.2541 7 12.0002C7 12.7464 7.60484 13.3512 8.35095 13.3512H10.6493V15.6492C10.6493 16.3953 11.2541 17.0001 12.0002 17.0001C12.7464 17.0001 13.3512 16.3953 13.3512 15.6492V13.3512H15.6492C16.3953 13.3512 17.0001 12.7464 17.0001 12.0002C17.0001 11.2541 16.3953 10.6493 15.6492 10.6493L13.3512 10.6493V8.35095C13.3512 7.60484 12.7464 7 12.0002 7Z" fill="#FCFCFC"/>
</svg>
