<svg width="40" height="49" viewBox="0 0 48 49" fill="none" xmlns="http://www.w3.org/2000/svg">
<path d="M45.7354 24.5C45.7354 36.5049 36.0034 46.2368 23.9985 46.2368C11.9936 46.2368 2.26172 36.5049 2.26172 24.5C2.26172 12.4951 11.9936 2.76318 23.9985 2.76318C36.0034 2.76318 45.7354 12.4951 45.7354 24.5ZM7.68198 24.5C7.68198 33.5114 14.9871 40.8166 23.9985 40.8166C33.0099 40.8166 40.3151 33.5114 40.3151 24.5C40.3151 15.4886 33.0099 8.18344 23.9985 8.18344C14.9871 8.18344 7.68198 15.4886 7.68198 24.5Z" fill="#000000"/>
<path fill-rule="evenodd" clip-rule="evenodd" d="M24.0005 14.5C22.5083 14.5 21.2986 15.7097 21.2986 17.2019V21.7986L16.7019 21.7986C15.2097 21.7986 14 23.0083 14 24.5005C14 25.9927 15.2097 27.2024 16.7019 27.2024H21.2986V31.7983C21.2986 33.2906 22.5083 34.5002 24.0005 34.5002C25.4927 34.5002 26.7024 33.2906 26.7024 31.7983V27.2024H31.2983C32.7906 27.2024 34.0002 25.9927 34.0002 24.5005C34.0002 23.0083 32.7906 21.7986 31.2983 21.7986L26.7024 21.7986V17.2019C26.7024 15.7097 25.4927 14.5 24.0005 14.5Z" fill="#000000"/>
</svg>
