<svg width="33" height="32" viewBox="0 0 33 32" fill="none" xmlns="http://www.w3.org/2000/svg">
<path d="M30.5215 16C30.5215 24.0033 24.0335 30.4912 16.0303 30.4912C8.027 30.4912 1.53906 24.0033 1.53906 16C1.53906 7.99673 8.027 1.50879 16.0303 1.50879C24.0335 1.50879 30.5215 7.99673 30.5215 16ZM5.15257 16C5.15257 22.0076 10.0227 26.8777 16.0303 26.8777C22.0379 26.8777 26.908 22.0076 26.908 16C26.908 9.99241 22.0379 5.1223 16.0303 5.1223C10.0227 5.1223 5.15257 9.99241 5.15257 16Z" fill="#373737"/>
<path fill-rule="evenodd" clip-rule="evenodd" d="M16.0303 9.3335C15.0355 9.3335 14.229 10.14 14.229 11.1348V14.1992H11.1646C10.1697 14.1992 9.36328 15.0057 9.36328 16.0005C9.36328 16.9953 10.1697 17.8018 11.1646 17.8018H14.229V20.8657C14.229 21.8605 15.0355 22.667 16.0303 22.667C17.0251 22.667 17.8315 21.8605 17.8315 20.8657V17.8018H20.8955C21.8903 17.8018 22.6968 16.9953 22.6968 16.0005C22.6968 15.0057 21.8903 14.1992 20.8955 14.1992H17.8315V11.1348C17.8315 10.14 17.0251 9.3335 16.0303 9.3335Z" fill="#373737"/>
</svg>
