<svg width="32" height="32" viewBox="0 0 32 32" fill="none" xmlns="http://www.w3.org/2000/svg">
<path d="M27.71 9.29002L22.71 4.29002C22.6166 4.19734 22.5057 4.12401 22.3839 4.07425C22.2621 4.02448 22.1316 3.99926 22 4.00002H6C5.46957 4.00002 4.96086 4.21073 4.58579 4.5858C4.21071 4.96088 4 5.46958 4 6.00002V26C4 26.5305 4.21071 27.0392 4.58579 27.4142C4.96086 27.7893 5.46957 28 6 28H26C26.5304 28 27.0391 27.7893 27.4142 27.4142C27.7893 27.0392 28 26.5305 28 26V10C28.0008 9.86841 27.9755 9.73795 27.9258 9.61611C27.876 9.49427 27.8027 9.38346 27.71 9.29002ZM12 6.00002H20V10H12V6.00002ZM20 26H12V18H20V26ZM22 26V18C22 17.4696 21.7893 16.9609 21.4142 16.5858C21.0391 16.2107 20.5304 16 20 16H12C11.4696 16 10.9609 16.2107 10.5858 16.5858C10.2107 16.9609 10 17.4696 10 18V26H6V6.00002H10V10C10 10.5304 10.2107 11.0392 10.5858 11.4142C10.9609 11.7893 11.4696 12 12 12H20C20.5304 12 21.0391 11.7893 21.4142 11.4142C21.7893 11.0392 22 10.5304 22 10V6.41002L26 10.41V26H22Z" fill="black"/>
</svg>
