<svg width="32" height="32" viewBox="0 0 32 32" fill="none" xmlns="http://www.w3.org/2000/svg">
<mask id="path-1-outside-1_885_3826" maskUnits="userSpaceOnUse" x="-0.0507812" y="0" width="32" height="32" fill="black">
<rect fill="white" x="-0.0507812" width="32" height="32"/>
<path fill-rule="evenodd" clip-rule="evenodd" d="M2.73127 27.328V2.78205H14.1354V10.9054C14.1354 11.4397 14.5685 11.8728 15.1028 11.8728H21.7381V15.7157C18.21 16.4269 15.5532 19.544 15.5532 23.2817C15.5532 24.7655 15.9719 26.1515 16.6976 27.328H2.73127ZM23.5202 11.0581V15.5674C24.1882 15.5885 24.8347 15.6945 25.4494 15.875C28.1395 16.6648 30.2198 18.8802 30.8164 21.6475H30.9333V22.3433C30.936 22.366 30.9387 22.3887 30.9412 22.4114C30.9733 22.6971 30.9897 22.9875 30.9897 23.2817C30.9897 27.5444 27.5341 31 23.2715 31C21.289 31 19.481 30.2525 18.1141 29.0241C17.9983 29.0792 17.8686 29.11 17.7318 29.11H1.91662C1.38233 29.11 0.949219 28.6769 0.949219 28.1426V1.9674C0.949219 1.43314 1.38232 1 1.91662 1H14.95C15.4843 1 15.9174 1.43312 15.9174 1.9674V10.0907H22.5528C23.0871 10.0907 23.5202 10.5239 23.5202 11.0581ZM29.2443 21.6475C28.6946 19.634 27.1541 18.0294 25.1791 17.3904L24.597 21.6475H29.2443ZM23.6766 17.104L22.8465 23.1749H29.4614C29.462 23.2105 29.4623 23.2461 29.4623 23.2817C29.4623 26.7008 26.6905 29.4725 23.2715 29.4725C19.8524 29.4725 17.0807 26.7008 17.0807 23.2817C17.0807 19.8626 19.8524 17.0909 23.2715 17.0909C23.4076 17.0909 23.5427 17.0953 23.6766 17.104Z"/>
</mask>
<path fill-rule="evenodd" clip-rule="evenodd" d="M2.73127 27.328V2.78205H14.1354V10.9054C14.1354 11.4397 14.5685 11.8728 15.1028 11.8728H21.7381V15.7157C18.21 16.4269 15.5532 19.544 15.5532 23.2817C15.5532 24.7655 15.9719 26.1515 16.6976 27.328H2.73127ZM23.5202 11.0581V15.5674C24.1882 15.5885 24.8347 15.6945 25.4494 15.875C28.1395 16.6648 30.2198 18.8802 30.8164 21.6475H30.9333V22.3433C30.936 22.366 30.9387 22.3887 30.9412 22.4114C30.9733 22.6971 30.9897 22.9875 30.9897 23.2817C30.9897 27.5444 27.5341 31 23.2715 31C21.289 31 19.481 30.2525 18.1141 29.0241C17.9983 29.0792 17.8686 29.11 17.7318 29.11H1.91662C1.38233 29.11 0.949219 28.6769 0.949219 28.1426V1.9674C0.949219 1.43314 1.38232 1 1.91662 1H14.95C15.4843 1 15.9174 1.43312 15.9174 1.9674V10.0907H22.5528C23.0871 10.0907 23.5202 10.5239 23.5202 11.0581ZM29.2443 21.6475C28.6946 19.634 27.1541 18.0294 25.1791 17.3904L24.597 21.6475H29.2443ZM23.6766 17.104L22.8465 23.1749H29.4614C29.462 23.2105 29.4623 23.2461 29.4623 23.2817C29.4623 26.7008 26.6905 29.4725 23.2715 29.4725C19.8524 29.4725 17.0807 26.7008 17.0807 23.2817C17.0807 19.8626 19.8524 17.0909 23.2715 17.0909C23.4076 17.0909 23.5427 17.0953 23.6766 17.104Z" fill="#373737"/>
<path d="M2.73127 2.78205V2.28205H2.23127V2.78205H2.73127ZM2.73127 27.328H2.23127V27.828H2.73127V27.328ZM14.1354 2.78205H14.6354V2.28205H14.1354V2.78205ZM21.7381 11.8728H22.2381V11.3728H21.7381V11.8728ZM21.7381 15.7157L21.8369 16.2059L22.2381 16.125V15.7157H21.7381ZM16.6976 27.328V27.828H17.5934L17.1231 27.0655L16.6976 27.328ZM23.5202 15.5674H23.0202V16.0518L23.5044 16.0671L23.5202 15.5674ZM25.4494 15.875L25.5903 15.3953L25.4494 15.875ZM30.8164 21.6475L30.3276 21.7528L30.4127 22.1475H30.8164V21.6475ZM30.9333 21.6475H31.4333V21.1475H30.9333V21.6475ZM30.9333 22.3433H30.4333V22.3735L30.4369 22.4034L30.9333 22.3433ZM30.9412 22.4114L31.4381 22.3557V22.3557L30.9412 22.4114ZM18.1141 29.0241L18.4483 28.6522L18.2004 28.4293L17.8993 28.5726L18.1141 29.0241ZM15.9174 10.0907H15.4174V10.5907H15.9174V10.0907ZM29.2443 21.6475V22.1475H29.8991L29.7266 21.5158L29.2443 21.6475ZM25.1791 17.3904L25.3331 16.9147L24.7647 16.7308L24.6837 17.3227L25.1791 17.3904ZM24.597 21.6475L24.1016 21.5797L24.024 22.1475H24.597V21.6475ZM22.8465 23.1749L22.3511 23.1072L22.2734 23.6749H22.8465V23.1749ZM23.6766 17.104L24.172 17.1717L24.2448 16.6396L23.7088 16.605L23.6766 17.104ZM29.4614 23.1749L29.9613 23.1665L29.953 22.6749H29.4614V23.1749ZM2.23127 2.78205V27.328H3.23127V2.78205H2.23127ZM14.1354 2.28205H2.73127V3.28205H14.1354V2.28205ZM14.6354 10.9054V2.78205H13.6354V10.9054H14.6354ZM15.1028 11.3728C14.8446 11.3728 14.6354 11.1635 14.6354 10.9054H13.6354C13.6354 11.7158 14.2924 12.3728 15.1028 12.3728V11.3728ZM21.7381 11.3728H15.1028V12.3728H21.7381V11.3728ZM22.2381 15.7157V11.8728H21.2381V15.7157H22.2381ZM16.0532 23.2817C16.0532 19.7867 18.5376 16.8709 21.8369 16.2059L21.6394 15.2256C17.8824 15.9828 15.0532 19.3013 15.0532 23.2817H16.0532ZM17.1231 27.0655C16.4447 25.9656 16.0532 24.6702 16.0532 23.2817H15.0532C15.0532 24.8608 15.499 26.3374 16.272 27.5905L17.1231 27.0655ZM2.73127 27.828H16.6976V26.828H2.73127V27.828ZM24.0202 15.5674V11.0581H23.0202V15.5674H24.0202ZM25.5903 15.3953C24.9353 15.203 24.2468 15.0901 23.536 15.0676L23.5044 16.0671C24.1296 16.0869 24.7341 16.1861 25.3086 16.3548L25.5903 15.3953ZM31.3052 21.5421C30.6697 18.5945 28.455 16.2363 25.5903 15.3953L25.3086 16.3548C27.8241 17.0932 29.7699 19.1659 30.3276 21.7528L31.3052 21.5421ZM30.8164 22.1475H30.9333V21.1475H30.8164V22.1475ZM30.4333 21.6475V22.3433H31.4333V21.6475H30.4333ZM31.4381 22.3557C31.4354 22.3314 31.4326 22.3073 31.4296 22.2831L30.4369 22.4034C30.4395 22.4247 30.442 22.4459 30.4443 22.4672L31.4381 22.3557ZM31.4897 23.2817C31.4897 22.9688 31.4722 22.6598 31.4381 22.3557L30.4443 22.4672C30.4743 22.7344 30.4897 23.0062 30.4897 23.2817H31.4897ZM23.2715 31.5C27.8103 31.5 31.4897 27.8205 31.4897 23.2817H30.4897C30.4897 27.2683 27.258 30.5 23.2715 30.5V31.5ZM17.7799 29.396C19.235 30.7037 21.1608 31.5 23.2715 31.5V30.5C21.4171 30.5 19.727 29.8014 18.4483 28.6522L17.7799 29.396ZM17.7318 29.61C17.9445 29.61 18.1474 29.562 18.3289 29.4756L17.8993 28.5726C17.8491 28.5964 17.7927 28.61 17.7318 28.61V29.61ZM1.91662 29.61H17.7318V28.61H1.91662V29.61ZM0.449219 28.1426C0.449219 28.953 1.10618 29.61 1.91662 29.61V28.61C1.65848 28.61 1.44922 28.4008 1.44922 28.1426H0.449219ZM0.449219 1.9674V28.1426H1.44922V1.9674H0.449219ZM1.91662 0.5C1.10616 0.5 0.449219 1.15701 0.449219 1.9674H1.44922C1.44922 1.70927 1.65847 1.5 1.91662 1.5V0.5ZM14.95 0.5H1.91662V1.5H14.95V0.5ZM16.4174 1.9674C16.4174 1.15698 15.7605 0.5 14.95 0.5V1.5C15.2082 1.5 15.4174 1.70926 15.4174 1.9674H16.4174ZM16.4174 10.0907V1.9674H15.4174V10.0907H16.4174ZM22.5528 9.59074H15.9174V10.5907H22.5528V9.59074ZM24.0202 11.0581C24.0202 10.2477 23.3632 9.59074 22.5528 9.59074V10.5907C22.8109 10.5907 23.0202 10.8 23.0202 11.0581H24.0202ZM29.7266 21.5158C29.1324 19.3389 27.4678 17.6054 25.3331 16.9147L25.0252 17.8661C26.8403 18.4534 28.2569 19.9291 28.7619 21.7791L29.7266 21.5158ZM24.6837 17.3227L24.1016 21.5797L25.0924 21.7152L25.6745 17.4581L24.6837 17.3227ZM24.597 22.1475H29.2443V21.1475H24.597V22.1475ZM23.3418 23.2427L24.172 17.1717L23.1812 17.0362L22.3511 23.1072L23.3418 23.2427ZM29.4614 22.6749H22.8465V23.6749H29.4614V22.6749ZM29.9623 23.2817C29.9623 23.2432 29.9619 23.2048 29.9613 23.1665L28.9614 23.1834C28.962 23.2161 28.9623 23.2489 28.9623 23.2817H29.9623ZM23.2715 29.9725C26.9667 29.9725 29.9623 26.9769 29.9623 23.2817H28.9623C28.9623 26.4247 26.4144 28.9725 23.2715 28.9725V29.9725ZM16.5807 23.2817C16.5807 26.9769 19.5762 29.9725 23.2715 29.9725V28.9725C20.1285 28.9725 17.5807 26.4247 17.5807 23.2817H16.5807ZM23.2715 16.5909C19.5762 16.5909 16.5807 19.5865 16.5807 23.2817H17.5807C17.5807 20.1388 20.1285 17.5909 23.2715 17.5909V16.5909ZM23.7088 16.605C23.5642 16.5956 23.4183 16.5909 23.2715 16.5909V17.5909C23.3968 17.5909 23.5212 17.595 23.6444 17.6029L23.7088 16.605Z" fill="#373737" mask="url(#path-1-outside-1_885_3826)"/>
</svg>
