<svg width="86" height="80" viewBox="0 0 86 80" fill="none" xmlns="http://www.w3.org/2000/svg">
<rect width="85.2196" height="80" rx="24" fill="#FFC000"/>
<path d="M47.6345 46.097V60.0491C48.286 60.0491 48.9141 60.0355 49.5421 60.0491C50.1701 60.0627 50.6488 60.5269 50.637 61.0825C50.6253 61.6382 50.171 62.0472 49.5511 62.078C49.4308 62.0843 49.3104 62.078 49.1891 62.078H43.8971C41.2427 62.078 38.5882 62.078 35.9338 62.078C35.0587 62.078 34.5493 61.7069 34.5402 61.0708C34.5312 60.4346 35.0651 60.0437 35.9193 60.041C36.4327 60.041 36.9455 60.0389 37.4577 60.0346C37.4977 60.0265 37.5364 60.0128 37.5726 59.9939V46.097H37.0469H20.9899C19.9483 46.097 19.6035 45.7576 19.6035 44.726C19.6035 35.9223 19.6035 27.1183 19.6035 18.314C19.6035 17.4308 19.9528 17.0778 20.8215 17.0778H28.5912V19.0777H21.6468V44.0202H63.5612V19.0895H56.6303V17.0742H57.0557C59.499 17.0742 61.9423 17.0742 64.3856 17.0742C65.2289 17.0742 65.6117 17.4434 65.6117 18.2751C65.6154 23.8675 65.6154 29.4599 65.6117 35.0524C65.6117 38.2938 65.6117 41.535 65.6117 44.7758C65.6117 45.7332 65.2561 46.0906 64.3068 46.0916C58.9093 46.0916 53.5117 46.0931 48.1141 46.0961L47.6345 46.097ZM39.6395 46.1106V60.0147H45.5713V46.1106H39.6395Z" fill="black"/>
<path d="M44.623 19.0382V17.1035H52.5864V19.0382H44.623Z" fill="black"/>
<path d="M32.6426 17.0918H40.5634V19.0519H32.6426V17.0918Z" fill="black"/>
<path d="M31.6243 20.0306C31.7754 20.0813 31.9057 20.1211 32.0297 20.1682C32.2298 20.2582 32.3955 20.4106 32.5019 20.6026C32.6082 20.7946 32.6495 21.0158 32.6197 21.2333C32.5419 21.6857 32.1808 22.0477 31.731 22.0577C30.9944 22.0794 30.256 22.0767 29.5185 22.0676C28.9683 22.0604 28.5955 21.7274 28.5231 21.2152C28.4507 20.703 28.7276 20.3003 29.2543 20.1238C29.3656 20.0858 29.4787 20.0505 29.609 20.008C29.609 19.0388 29.6009 18.076 29.609 17.1122C29.6144 16.6145 29.8805 16.2281 30.2931 16.0978C30.6831 15.9738 31.0768 16.029 31.3148 16.363C31.4902 16.6183 31.5919 16.917 31.6089 17.2263C31.6478 18.1583 31.6243 19.0913 31.6243 20.0306Z" fill="black"/>
<path d="M53.6053 20.0045C53.6053 19.0597 53.6053 18.1123 53.6053 17.1648C53.6053 16.4897 54.0161 16.0509 54.6332 16.0518C55.2061 16.0518 55.6069 16.5042 55.6097 17.1712C55.6151 18.1186 55.6097 19.0661 55.6097 20.0298C55.7481 20.0778 55.8811 20.1149 56.0006 20.1646C56.2046 20.2473 56.3746 20.3966 56.483 20.5882C56.5915 20.7797 56.6319 21.0023 56.5978 21.2198C56.5426 21.6478 56.2033 22.0342 55.7744 22.0487C54.9599 22.0804 54.1455 22.0813 53.3374 22.0559C52.9257 22.0433 52.58 21.6677 52.523 21.2705C52.4515 20.7737 52.6741 20.3384 53.103 20.1619C53.2587 20.1031 53.4243 20.0633 53.6053 20.0045Z" fill="black"/>
<path d="M41.5936 20.0124C41.5936 19.017 41.5855 18.0487 41.5936 17.0849C41.5903 16.8487 41.6691 16.6187 41.8164 16.434C41.9638 16.2494 42.1706 16.1215 42.4017 16.0723C42.6241 16.0208 42.8575 16.0496 43.0606 16.1538C43.2637 16.258 43.4233 16.4308 43.5111 16.6415C43.5755 16.8248 43.6062 17.0183 43.6016 17.2125C43.6107 18.0264 43.6107 18.8408 43.6016 19.6558C43.6016 19.9038 43.6414 20.0649 43.9256 20.1499C44.1441 20.2141 44.3332 20.3528 44.46 20.5419C44.5868 20.7311 44.6433 20.9587 44.6197 21.1852C44.5943 21.4276 44.4803 21.6521 44.2997 21.8158C44.119 21.9794 43.8843 22.0706 43.6405 22.072C42.9618 22.0892 42.2832 22.0865 41.6054 22.072C41.0497 22.0648 40.6507 21.7372 40.5701 21.2521C40.4796 20.7255 40.7448 20.3237 41.3058 20.1201C41.3963 20.0911 41.4823 20.0567 41.5936 20.0124Z" fill="black"/>
</svg>
