<svg width="86" height="80" viewBox="0 0 86 80" fill="none" xmlns="http://www.w3.org/2000/svg">
<rect width="85.2196" height="80" rx="24" fill="#FFC000"/>
<path fill-rule="evenodd" clip-rule="evenodd" d="M24.5741 20.3269C23.1983 21.1247 23.0773 21.6595 23.0773 26.9413V31.6141H21.1073C18.9616 31.6141 18.129 31.8868 17.6757 32.7384C17.4668 33.1309 17.4189 36.1886 17.4657 46.1632L17.5264 59.0797L18.1407 59.6081L18.7548 60.1361L41.3237 60.0789L63.8925 60.0214L64.5917 59.4968C66.0279 58.4191 65.9604 59.3882 65.9604 39.8496C65.9604 23.1119 65.9387 22.0973 65.5627 21.3965C65.344 20.9886 64.8311 20.4758 64.4232 20.257C63.7209 19.8804 62.6676 19.8595 44.5223 19.8643C25.4537 19.8693 25.3592 19.8715 24.5741 20.3269ZM62.6952 39.8888V56.8651H44.5189H26.3425V39.8857V22.9064L44.5189 22.9094L62.6952 22.9125V39.8888ZM55.7294 26.3357C54.2884 26.5323 53.3349 27.487 53.3349 28.7333C53.3349 29.4292 54.1826 30.3027 55.4316 30.894C56.2449 31.279 56.6002 31.574 56.6002 31.864C56.6002 32.5028 55.9423 32.6352 55.4974 32.0858C55.2183 31.7412 54.8757 31.6141 54.2253 31.6141C53.4146 31.6141 53.3349 31.6641 53.3349 32.1726C53.3349 33.4844 54.3746 34.2269 56.2083 34.2251C57.78 34.2236 58.5597 33.6113 58.7108 32.2597C58.8505 31.0085 58.3355 30.3189 56.704 29.5718C55.8232 29.1686 55.5117 28.9092 55.5117 28.5785C55.5117 28.2518 55.6522 28.1312 56.0327 28.1312C56.3191 28.1312 56.61 28.2781 56.679 28.4577C56.822 28.8306 58.4487 28.9216 58.6666 28.5689C58.9039 28.1851 58.1137 26.8727 57.5101 26.6479C56.5908 26.3055 56.3111 26.2563 55.7294 26.3357ZM30.2608 30.308V34.2262H31.2403H32.2199V32.02C32.2199 29.4701 32.1467 29.4492 34.0536 32.5392C35.0643 34.1766 35.1196 34.2262 35.9431 34.2262H36.7912V30.308V26.3897H35.789H34.7868L34.8686 28.6575C34.9135 29.9046 34.8839 30.8842 34.8029 30.8341C34.7219 30.784 34.3886 30.2779 34.0623 29.7093C33.736 29.1405 33.1337 28.1612 32.724 27.5325C32.0331 26.4729 31.9164 26.3897 31.1199 26.3897H30.2608V30.308ZM38.0973 30.308V34.2262H40.2741H42.4509V33.2467V32.2671H41.2536C40.1217 32.2671 40.0564 32.2375 40.0564 31.7229C40.0564 31.2083 40.1217 31.1787 41.2536 31.1787H42.4509V30.308C42.4509 29.3656 42.4411 29.3602 40.8727 29.4329C40.1308 29.4671 40.0564 29.4194 40.0564 28.9096C40.0564 28.375 40.1121 28.3488 41.2536 28.3488H42.4509V27.3693V26.3897H40.2741H38.0973V30.308ZM43.1113 26.553C43.1155 26.6427 43.3064 27.4509 43.5356 28.3488C43.7648 29.2468 44.1884 30.912 44.4768 32.0494L45.0017 34.1174L45.9051 34.1844C46.5054 34.2291 46.8398 34.1559 46.9018 33.9668C46.953 33.8102 47.217 32.7025 47.4882 31.5052L47.9813 29.3284L48.5401 31.7229L49.0986 34.1174L49.9903 34.1829C50.8564 34.2465 50.8882 34.2247 51.1048 33.421C51.8101 30.8036 52.8996 26.5963 52.8996 26.4901C52.8996 26.4217 52.4344 26.3958 51.8656 26.4322L50.8316 26.4986L50.4245 28.6209C50.2008 29.7881 49.94 30.7433 49.8451 30.7433C49.7502 30.7433 49.6082 30.3271 49.5294 29.8182C49.4506 29.3092 49.3039 28.5992 49.2034 28.24C49.1028 27.8808 48.9593 27.3118 48.8847 26.9757C48.7623 26.4245 48.6705 26.371 47.9528 26.4315L47.1565 26.4986L46.7083 28.6053C46.4619 29.764 46.2046 30.7666 46.1364 30.8335C46.0683 30.9003 45.8876 30.2951 45.7348 29.4886C45.1364 26.3279 45.1697 26.3897 44.075 26.3897C43.541 26.3897 43.1072 26.4633 43.1113 26.553ZM23.0773 45.3458V56.8651H21.227H19.3767V45.3439C19.3767 34.9243 19.4102 33.8161 19.7274 33.7523C19.9202 33.7136 20.7529 33.7145 21.5777 33.7543L23.0773 33.8266V45.3458ZM30.2608 38.5668V39.6487L34.7776 39.604L39.2945 39.5594V38.5798V37.6003L34.7776 37.5428L30.2608 37.4851V38.5668ZM45.2329 47.2971L45.2936 53.6203L46.6478 53.5556L48.0018 53.491L48.1106 51.826C48.2351 49.9199 48.574 49.371 49.7648 49.1476L50.5197 49.0061L49.7506 48.1073C49.1128 47.3624 48.9815 47.0387 48.9822 46.2139C48.9837 44.4141 50.2295 43.1368 52.0071 43.1122C54.7131 43.0747 56.0237 46.1628 54.1887 48.2527L53.5402 48.9913L54.1824 49.1322C54.5354 49.2099 55.077 49.5074 55.3857 49.7935C55.8936 50.2643 55.9471 50.4705 55.9471 51.9568V53.5998H57.362H58.777V47.2871V40.9743L51.9744 40.9741H45.1719L45.2329 47.2971ZM30.2608 41.5185C30.2608 41.8017 31.1437 41.8451 36.9 41.8451C42.6564 41.8451 43.5393 41.8017 43.5393 41.5185C43.5393 41.2353 42.6564 41.192 36.9 41.192C31.1437 41.192 30.2608 41.2353 30.2608 41.5185ZM30.2608 43.913C30.2608 44.1962 31.1437 44.2396 36.9 44.2396C42.6564 44.2396 43.5393 44.1962 43.5393 43.913C43.5393 43.6298 42.6564 43.5865 36.9 43.5865C31.1437 43.5865 30.2608 43.6298 30.2608 43.913ZM30.2608 46.1987C30.2608 46.6245 30.4059 46.634 36.9 46.634C43.3941 46.634 43.5393 46.6245 43.5393 46.1987C43.5393 45.7729 43.3941 45.7633 36.9 45.7633C30.4059 45.7633 30.2608 45.7729 30.2608 46.1987ZM30.2608 48.4663C30.2608 48.6358 30.3581 48.8072 30.4771 48.8472C30.5962 48.887 33.5839 48.8923 37.1164 48.859C42.5965 48.8072 43.5393 48.7512 43.5393 48.478C43.5393 48.2033 42.598 48.1578 36.9 48.1578C31.3172 48.1578 30.2608 48.2068 30.2608 48.4663ZM30.2608 50.8788C30.2608 51.162 31.1437 51.2054 36.9 51.2054C42.6564 51.2054 43.5393 51.162 43.5393 50.8788C43.5393 50.5956 42.6564 50.5523 36.9 50.5523C31.1437 50.5523 30.2608 50.5956 30.2608 50.8788ZM30.409 52.871C30.3276 52.9527 30.2608 53.1499 30.2608 53.3097C30.2608 53.5452 31.515 53.5998 36.9159 53.5998C43.137 53.5998 43.5665 53.575 43.4979 53.2189C43.4305 52.868 42.9187 52.8334 36.991 52.7803C33.4524 52.7487 30.4906 52.7894 30.409 52.871Z" fill="black"/>
</svg>
