<svg width="86" height="80" viewBox="0 0 86 80" fill="none" xmlns="http://www.w3.org/2000/svg">
<rect opacity="0.5" width="85.2196" height="80" rx="24" fill="#FFC000"/>
<path d="M42.0286 58.6628C42.6871 58.6628 43.2643 58.6566 43.8428 58.6628C44.6599 58.6741 45.3646 59.1626 45.5445 59.8198C45.7694 60.6445 45.4096 61.634 44.7074 62.0213C44.502 62.1153 44.277 62.1582 44.0515 62.1463C41.5526 62.1546 39.0537 62.1546 36.5548 62.1463C36.1014 62.1447 35.6662 61.9678 35.3402 61.6528C35.0142 61.3377 34.8226 60.9088 34.8055 60.4558C34.7581 59.5162 35.5989 58.729 36.5348 58.6628C37.0346 58.6278 37.5343 58.6503 38.0341 58.6628C38.369 58.6628 38.5401 58.5291 38.5339 58.1805C38.5251 57.9307 38.5339 57.6808 38.5339 57.4309C38.5339 52.498 38.5364 47.5648 38.5414 42.6312C38.5414 41.9764 38.5064 41.5916 37.693 41.2867C35.7651 40.5683 34.3557 39.1939 33.5586 37.221C32.5778 34.7884 32.9501 32.5481 34.3682 30.4265C35.339 28.9759 36.6997 28.0163 38.4002 27.6777C39.436 27.4703 40.563 27.2892 41.575 27.4816C43.4867 27.8452 45.036 28.906 46.223 30.5227C47.0764 31.6847 47.4275 33.0091 47.4537 34.3448C47.4862 36.0153 47.0789 37.6159 45.9056 38.9828C45.051 39.9748 44.1327 40.9044 42.9157 41.2418C41.9536 41.5091 42.0211 42.0127 42.0223 42.7049C42.0348 47.786 42.0369 52.867 42.0286 57.9481V58.6628ZM43.8153 34.5797C43.9702 32.6743 42.191 30.9638 40.3656 30.9076C38.3527 30.8451 36.531 32.6768 36.6035 34.5822C36.6785 36.5663 37.9541 38.0869 40.2369 38.1469C42.2585 38.1944 43.8565 36.6688 43.8153 34.5797Z" fill="#FAFAFA"/>
<path d="M53.247 47.8324C52.8559 47.3326 52.461 46.874 52.1224 46.3743C52.035 46.2493 52.0437 45.9157 52.1449 45.8095C53.5445 44.3425 54.6442 42.6164 55.3823 40.728C55.8035 39.6944 56.1078 38.6169 56.2894 37.5157C56.4893 36.2137 56.5043 34.8806 56.5467 33.5587C56.5892 32.2367 56.2069 31.0235 55.867 29.7728C55.361 27.9112 54.4439 26.2744 53.3269 24.7513C52.3011 23.3557 51.0779 22.1137 49.5998 21.1866C48.694 20.6219 47.7831 20.0359 46.806 19.6198C45.4317 19.0338 44.031 18.4466 42.4892 18.3791C41.7908 18.3479 41.0961 18.1967 40.3976 18.1792C38.8296 18.1405 37.2815 18.2829 35.8071 18.8839C34.5377 19.4024 33.1833 19.7797 32.0088 20.4557C29.0689 22.145 26.8161 24.5401 25.4267 27.6575C24.9357 28.7583 24.6146 29.9403 24.281 31.1048C23.8624 32.5641 23.6713 34.0822 23.8562 35.5778C24.0523 37.1583 24.156 38.7789 24.9669 40.2395C25.443 41.0978 25.6779 42.0961 26.1864 42.9295C26.7936 43.9291 27.5608 44.8224 28.2955 45.7345C28.5316 46.0269 28.5891 46.2031 28.2955 46.4842C27.9081 46.8491 27.5633 47.2589 27.1522 47.7012C25.7116 46.0544 24.3022 44.4614 23.5351 42.4148C23.2002 41.5214 22.7854 40.658 22.4793 39.7572C22.2597 39.1445 22.1191 38.5063 22.0607 37.858C21.9358 36.1488 21.8108 34.4308 21.8458 32.7203C21.8892 31.1249 22.2618 29.5557 22.9403 28.1111C23.3539 27.2215 23.615 26.2369 24.1473 25.4298C25.0442 24.0719 26.0293 22.7742 27.096 21.5452C28.263 20.1996 29.7436 19.1713 31.3179 18.3816C32.7173 17.6744 34.2403 17.2046 35.7234 16.6699C38.0761 15.8215 40.5288 16.0614 42.9315 16.2401C44.2584 16.3388 45.5553 16.9447 46.8548 17.3271C48.4878 17.8069 49.9459 18.6665 51.2478 19.701C52.5267 20.7161 53.6925 21.866 54.725 23.1308C55.6571 24.2815 56.3731 25.6234 57.074 26.9403C57.4986 27.7736 57.8224 28.6544 58.0386 29.5642C58.3595 30.7455 58.5859 31.9504 58.7158 33.1676C58.8107 34.1884 58.692 35.2329 58.6146 36.2637C58.5596 37.0009 58.4259 37.7343 58.3122 38.4665C58.0954 39.8781 57.6377 41.2419 56.9591 42.4985C56.4305 43.478 55.9058 44.4689 55.2798 45.3859C54.7363 46.1706 54.0616 46.8628 53.247 47.8324Z" fill="#FAFAFA"/>
<path d="M47.7115 42.1925C48.8041 41.2129 49.6427 39.9829 50.1554 38.6079C50.7364 37.0636 51.2412 35.4768 51.02 33.8075C50.6065 30.6839 49.3033 27.9751 46.7532 26.0459C45.5162 25.1113 44.1393 24.2892 42.5225 24.1455C41.2293 24.0306 39.8987 23.8294 38.6342 23.9843C36.8763 24.1992 35.2707 24.9227 33.8014 25.9997C32.5894 26.8868 31.7035 28.04 30.9276 29.2383C30.3029 30.2003 29.8419 31.3361 29.7769 32.558C29.7282 33.4601 29.527 34.366 29.577 35.2606C29.661 37.3046 30.3701 39.2736 31.6086 40.9019C31.7335 41.063 31.8585 41.2217 31.9834 41.3841C32.5794 42.1775 32.5794 42.1775 31.866 42.9485C31.6511 43.1808 31.4374 43.4157 31.1326 43.7481C30.594 43.0497 30.063 42.4037 29.5782 41.724C28.6769 40.4876 28.0689 39.0622 27.8003 37.5558C27.6341 36.5838 27.3717 35.6029 27.3917 34.6296C27.4249 33.3201 27.6269 32.0204 27.9927 30.7626C28.6374 28.4911 29.8881 26.6394 31.5886 25.0776C32.8942 23.8624 34.4499 22.9477 36.1466 22.3975C37.586 21.934 39.0491 21.6616 40.5546 21.7028C43.3205 21.7615 45.9912 22.7238 48.1588 24.4429C49.8044 25.7049 51.1087 27.358 51.9534 29.252C52.3639 30.158 52.6461 31.1168 52.7917 32.1007C52.9804 33.4851 53.1328 34.9108 53.0004 36.2889C52.883 37.4984 52.4144 38.6928 51.9834 39.8486C51.5111 41.1155 50.6652 42.1738 49.8106 43.2146C49.5219 43.5682 49.342 43.6581 48.9884 43.2521C48.6348 42.846 48.1588 42.5524 47.7115 42.1925Z" fill="#FAFAFA"/>
</svg>
