<svg width="86" height="80" viewBox="0 0 86 80" fill="none" xmlns="http://www.w3.org/2000/svg">
<rect width="85.2196" height="80" rx="24" fill="#FFC000"/>
<path d="M42.1888 58.5964C42.8472 58.5964 43.4245 58.5902 44.003 58.5964C44.8201 58.6077 45.5248 59.0962 45.7047 59.7534C45.9296 60.578 45.5698 61.5676 44.8676 61.9549C44.6622 62.0489 44.4371 62.0918 44.2116 62.0799C41.7127 62.0882 39.2138 62.0882 36.7149 62.0799C36.2616 62.0783 35.8264 61.9014 35.5004 61.5864C35.1744 61.2713 34.9828 60.8424 34.9657 60.3894C34.9182 59.4498 35.7591 58.6626 36.6949 58.5964C37.1947 58.5614 37.6945 58.5839 38.1943 58.5964C38.5291 58.5964 38.7003 58.4627 38.694 58.1141C38.6853 57.8642 38.694 57.6144 38.694 57.3645C38.694 52.4316 38.6965 47.4984 38.7015 42.5647C38.7015 41.91 38.6666 41.5252 37.8532 41.2203C35.9253 40.5019 34.5159 39.1275 33.7187 37.1546C32.7379 34.722 33.1103 32.4817 34.5284 30.3601C35.4992 28.9095 36.8599 27.9499 38.5604 27.6113C39.5961 27.4039 40.7231 27.2228 41.7352 27.4152C43.6469 27.7788 45.1962 28.8396 46.3831 30.4563C47.2365 31.6183 47.5876 32.9427 47.6139 34.2784C47.6463 35.9489 47.239 37.5495 46.0658 38.9164C45.2112 39.9084 44.2928 40.838 43.0759 41.1754C42.1138 41.4427 42.1813 41.9463 42.1825 42.6385C42.195 47.7196 42.1971 52.8006 42.1888 57.8817V58.5964ZM43.9755 34.5133C44.1304 32.6079 42.3512 30.8974 40.5257 30.8412C38.5129 30.7787 36.6912 32.6104 36.7636 34.5158C36.8386 36.4999 38.1143 38.0205 40.397 38.0805C42.4187 38.128 44.0167 36.6024 43.9755 34.5133Z" fill="black"/>
<path d="M53.4071 47.766C53.016 47.2662 52.6212 46.8076 52.2826 46.3079C52.1951 46.1829 52.2039 45.8493 52.3051 45.7431C53.7047 44.2761 54.8044 42.55 55.5424 40.6616C55.9637 39.628 56.2679 38.5505 56.4495 37.4493C56.6494 36.1473 56.6644 34.8142 56.7069 33.4923C56.7494 32.1703 56.367 30.9571 56.0272 29.7064C55.5212 27.8448 54.6041 26.208 53.4871 24.6849C52.4613 23.2893 51.2381 22.0473 49.76 21.1202C48.8541 20.5555 47.9433 19.9695 46.9662 19.5534C45.5918 18.9674 44.1912 18.3802 42.6494 18.3127C41.9509 18.2815 41.2562 18.1303 40.5578 18.1128C38.9897 18.0741 37.4417 18.2165 35.9673 18.8175C34.6979 19.336 33.3435 19.7133 32.169 20.3893C29.229 22.0785 26.9763 24.4737 25.5869 27.5911C25.0959 28.6919 24.7747 29.8739 24.4411 31.0383C24.0226 32.4977 23.8314 34.0158 24.0163 35.5114C24.2125 37.0919 24.3162 38.7125 25.1271 40.1731C25.6031 41.0314 25.838 42.0297 26.3466 42.8631C26.9538 43.8627 27.7209 44.756 28.4556 45.6681C28.6918 45.9605 28.7492 46.1367 28.4556 46.4178C28.0683 46.7826 27.7234 47.1925 27.3124 47.6348C25.8718 45.988 24.4624 44.3949 23.6952 42.3484C23.3604 41.455 22.9456 40.5916 22.6394 39.6908C22.4199 39.0781 22.2792 38.4399 22.2209 37.7916C22.0959 36.0824 21.971 34.3644 22.006 32.6539C22.0493 31.0585 22.422 29.4893 23.1005 28.0447C23.5141 27.1551 23.7752 26.1705 24.3075 25.3633C25.2044 24.0055 26.1894 22.7078 27.2562 21.4788C28.4231 20.1332 29.9037 19.1049 31.478 18.3152C32.8774 17.608 34.4005 17.1382 35.8836 16.6035C38.2363 15.7551 40.689 15.995 43.0917 16.1737C44.4186 16.2724 45.7155 16.8783 47.0149 17.2607C48.648 17.7405 50.1061 18.6001 51.408 19.6346C52.6868 20.6497 53.8526 21.7996 54.8852 23.0644C55.8173 24.2151 56.5332 25.557 57.2342 26.8739C57.6587 27.7071 57.9825 28.588 58.1987 29.4978C58.5196 30.6791 58.7461 31.884 58.8759 33.1012C58.9709 34.122 58.8522 35.1665 58.7747 36.1973C58.7198 36.9345 58.5861 37.6679 58.4724 38.4001C58.2556 39.8117 57.7979 41.1755 57.1192 42.4321C56.5907 43.4116 56.0659 44.4024 55.44 45.3195C54.8965 46.1042 54.2217 46.7964 53.4071 47.766Z" fill="black"/>
<path d="M47.8716 42.1261C48.9642 41.1465 49.8029 39.9164 50.3156 38.5415C50.8966 36.9971 51.4013 35.4103 51.1802 33.7411C50.7666 30.6175 49.4634 27.9087 46.9133 25.9795C45.6764 25.0449 44.2995 24.2228 42.6827 24.0791C41.3895 23.9641 40.0588 23.763 38.7944 23.9179C37.0364 24.1328 35.4309 24.8563 33.9615 25.9333C32.7496 26.8204 31.8637 27.9736 31.0878 29.1718C30.4631 30.1339 30.002 31.2697 29.9371 32.4916C29.8883 33.3937 29.6872 34.2996 29.7371 35.1942C29.8211 37.2382 30.5302 39.2072 31.7687 40.8355C31.8937 40.9966 32.0186 41.1553 32.1436 41.3177C32.7396 42.1111 32.7396 42.1111 32.0261 42.882C31.8112 43.1144 31.5976 43.3493 31.2927 43.6817C30.7542 42.9833 30.2232 42.3373 29.7384 41.6576C28.837 40.4212 28.229 38.9958 27.9604 37.4894C27.7943 36.5174 27.5319 35.5365 27.5519 34.5632C27.585 33.2537 27.787 31.954 28.1528 30.6962C28.7976 28.4247 30.0483 26.573 31.7488 25.0112C33.0544 23.796 34.6101 22.8813 36.3067 22.3311C37.7461 21.8676 39.2092 21.5952 40.7148 21.6364C43.4807 21.695 46.1514 22.6574 48.3189 24.3765C49.9645 25.6385 51.2689 27.2916 52.1135 29.1856C52.5241 30.0916 52.8062 31.0504 52.9519 32.0343C53.1406 33.4187 53.293 34.8443 53.1606 36.2225C53.0431 37.432 52.5746 38.6264 52.1435 39.7822C51.6712 41.0491 50.8253 42.1074 49.9707 43.1482C49.6821 43.5018 49.5022 43.5917 49.1486 43.1857C48.795 42.7796 48.3189 42.486 47.8716 42.1261Z" fill="black"/>
</svg>
