<svg width="86" height="80" viewBox="0 0 86 80" fill="none" xmlns="http://www.w3.org/2000/svg">
<rect width="85.2196" height="80" rx="24" fill="#FFC000"/>
<path fill-rule="evenodd" clip-rule="evenodd" d="M34.8086 15.5826C24.8375 15.7348 24.8622 15.731 23.9751 17.1858C23.5015 17.9627 23.4861 18.6371 23.4854 38.9181L23.4844 59.8489L24.1646 60.6572C25.4563 62.1925 24.959 62.1522 42.6684 62.1522C57.9333 62.1522 58.8986 62.1258 59.7261 61.6862C60.2082 61.43 60.8575 60.8469 61.169 60.3909L61.7352 59.5613V37.5791V15.5969H53.5881C49.1072 15.5969 45.1152 15.5622 44.7174 15.5197C44.3195 15.4774 39.8605 15.5056 34.8086 15.5826ZM57.9605 18.4909V19.12H42.484H27.0075V18.4909V17.8618H42.484H57.9605V18.4909ZM57.8347 20.6299V21.259H42.4875C27.6663 21.259 27.1371 21.2429 27.049 20.7859C26.9989 20.5257 27.1034 20.223 27.2808 20.1133C27.4584 20.0036 34.4058 19.9334 42.7193 19.9573L57.8347 20.0008V20.6299ZM57.9605 41.0136V58.3775H42.484H27.0075V41.0136V23.6497H42.484H57.9605V41.0136ZM42.2323 31.8415C42.0939 31.8807 41.5793 31.9796 41.0888 32.0611C39.6876 32.2937 37.9762 34.0643 37.5879 35.6826C37.4157 36.4001 37.1782 36.9872 37.0599 36.9872C36.9414 36.9872 36.7738 37.3657 36.687 37.8282C36.5715 38.443 36.6696 38.8995 37.0521 39.5269C37.3395 39.9984 37.5753 40.5586 37.5758 40.7718C37.5763 40.9847 37.8015 41.5997 38.0763 42.1385C38.3511 42.6775 38.5439 43.1504 38.5049 43.1894C38.4659 43.2284 37.3201 43.7772 35.9587 44.4091L33.4837 45.5577L33.6098 47.3185C33.8189 50.2419 33.2668 50.073 42.6181 50.073C49.2129 50.073 50.6526 50.0109 50.8979 49.7152C51.0615 49.5184 51.3197 48.6051 51.4719 47.6859C51.8112 45.6389 51.7311 45.5388 48.6494 44.1444C47.4729 43.6121 46.4764 43.1562 46.4351 43.1312C46.3936 43.1063 46.6483 42.6604 47.0014 42.1405C47.3542 41.6203 47.6428 40.9172 47.6428 40.5777C47.6428 40.2383 47.8693 39.6726 48.1461 39.3208C48.7725 38.5245 48.7818 37.9802 48.1826 37.2099C47.9259 36.8797 47.6411 36.2036 47.5497 35.7071C47.3635 34.6942 45.9263 32.8705 44.9124 32.3606C44.2251 32.0148 42.677 31.7151 42.2323 31.8415ZM44.5364 33.9918C45.8251 34.7883 46.1329 35.6119 46.1329 38.2661C46.1329 40.1731 46.0408 40.726 45.6052 41.4303C44.8178 42.7047 43.6521 43.1901 41.6855 43.0623C40.9776 43.0162 39.6202 41.8702 39.2853 41.036C38.8985 40.0722 39.0391 36.0473 39.4903 35.1751C40.3392 33.5335 42.8446 32.9459 44.5364 33.9918ZM43.3972 44.0598C44.0107 43.8459 44.3769 43.9053 45.453 44.393C46.1729 44.7194 47.5386 45.338 48.4879 45.7675C49.8017 46.3624 50.1772 46.644 50.0607 46.9475C49.9766 47.1667 49.9077 47.6199 49.9077 47.9546V48.5631H42.6377H35.3681L35.1967 47.6496C35.0973 47.1207 35.1338 46.6274 35.283 46.4782C35.4249 46.3363 36.7632 45.6913 38.2575 45.0448C40.5946 44.0337 41.0913 43.9008 41.8123 44.0946C42.3405 44.2367 42.9269 44.2237 43.3972 44.0598Z" fill="black"/>
</svg>
