<svg width="539" height="174" viewBox="0 0 539 174" fill="none" xmlns="http://www.w3.org/2000/svg">
<path d="M56.218 36.1924C56.9602 35.7727 57.5776 35.1634 58.0072 34.4269C58.4368 33.6904 58.6632 32.8531 58.6632 32.0004C58.6632 31.1478 58.4368 30.3104 58.0072 29.5739C57.5776 28.8374 56.9602 28.2282 56.218 27.8084L17.9833 5.98444C14.73 4.12844 10.666 6.45911 10.666 10.1871V53.8138C10.666 57.5364 14.73 59.8671 17.9833 58.0111L56.2233 36.1871L56.218 36.1924Z" fill="#16164F"/>
<path d="M80.6903 46V11.0909H94.4631C97.1108 11.0909 99.3665 11.5966 101.23 12.608C103.094 13.608 104.514 15 105.491 16.7841C106.48 18.5568 106.974 20.6023 106.974 22.9205C106.974 25.2386 106.474 27.2841 105.474 29.0568C104.474 30.8295 103.026 32.2102 101.128 33.1989C99.2415 34.1875 96.9574 34.6818 94.2756 34.6818H85.4972V28.767H93.0824C94.5028 28.767 95.6733 28.5227 96.5938 28.0341C97.5256 27.5341 98.2188 26.8466 98.6733 25.9716C99.1392 25.0852 99.3722 24.0682 99.3722 22.9205C99.3722 21.7614 99.1392 20.75 98.6733 19.8864C98.2188 19.0114 97.5256 18.3352 96.5938 17.858C95.6619 17.3693 94.4801 17.125 93.0483 17.125H88.071V46H80.6903ZM118.893 11.0909V46H111.632V11.0909H118.893ZM132.176 46.4943C130.506 46.4943 129.017 46.2045 127.71 45.625C126.403 45.0341 125.369 44.1648 124.608 43.017C123.858 41.858 123.483 40.4148 123.483 38.6875C123.483 37.233 123.75 36.0114 124.284 35.0227C124.818 34.0341 125.545 33.2386 126.466 32.6364C127.386 32.0341 128.432 31.5795 129.602 31.2727C130.784 30.9659 132.023 30.75 133.318 30.625C134.841 30.4659 136.068 30.3182 137 30.1818C137.932 30.0341 138.608 29.8182 139.028 29.5341C139.449 29.25 139.659 28.8295 139.659 28.2727V28.1705C139.659 27.0909 139.318 26.2557 138.636 25.6648C137.966 25.0739 137.011 24.7784 135.773 24.7784C134.466 24.7784 133.426 25.0682 132.653 25.6477C131.881 26.2159 131.369 26.9318 131.119 27.7955L124.403 27.25C124.744 25.6591 125.415 24.2841 126.415 23.125C127.415 21.9545 128.705 21.0568 130.284 20.4318C131.875 19.7955 133.716 19.4773 135.807 19.4773C137.261 19.4773 138.653 19.6477 139.983 19.9886C141.324 20.3295 142.511 20.858 143.545 21.5739C144.591 22.2898 145.415 23.2102 146.017 24.3352C146.619 25.4489 146.92 26.7841 146.92 28.3409V46H140.034V42.3693H139.83C139.409 43.1875 138.847 43.9091 138.142 44.5341C137.438 45.1477 136.591 45.6307 135.602 45.983C134.614 46.3239 133.472 46.4943 132.176 46.4943ZM134.256 41.483C135.324 41.483 136.267 41.2727 137.085 40.8523C137.903 40.4205 138.545 39.8409 139.011 39.1136C139.477 38.3864 139.71 37.5625 139.71 36.642V33.8636C139.483 34.0114 139.17 34.1477 138.773 34.2727C138.386 34.3864 137.949 34.4943 137.46 34.5966C136.972 34.6875 136.483 34.7727 135.994 34.8523C135.506 34.9205 135.062 34.983 134.665 35.0398C133.813 35.1648 133.068 35.3636 132.432 35.6364C131.795 35.9091 131.301 36.2784 130.949 36.7443C130.597 37.1989 130.42 37.767 130.42 38.4489C130.42 39.4375 130.778 40.1932 131.494 40.7159C132.222 41.2273 133.142 41.483 134.256 41.483ZM166.48 19.8182V25.2727H150.713V19.8182H166.48ZM154.293 13.5455H161.554V37.9545C161.554 38.625 161.656 39.1477 161.861 39.5227C162.065 39.8864 162.349 40.142 162.713 40.2898C163.088 40.4375 163.52 40.5114 164.009 40.5114C164.349 40.5114 164.69 40.483 165.031 40.4261C165.372 40.358 165.634 40.3068 165.815 40.2727L166.957 45.6761C166.594 45.7898 166.082 45.9205 165.423 46.0682C164.764 46.2273 163.963 46.3239 163.02 46.358C161.27 46.4261 159.736 46.1932 158.418 45.6591C157.111 45.125 156.094 44.2955 155.366 43.1705C154.639 42.0455 154.281 40.625 154.293 38.9091V13.5455ZM178.676 46.4943C177.006 46.4943 175.517 46.2045 174.21 45.625C172.903 45.0341 171.869 44.1648 171.108 43.017C170.358 41.858 169.983 40.4148 169.983 38.6875C169.983 37.233 170.25 36.0114 170.784 35.0227C171.318 34.0341 172.045 33.2386 172.966 32.6364C173.886 32.0341 174.932 31.5795 176.102 31.2727C177.284 30.9659 178.523 30.75 179.818 30.625C181.341 30.4659 182.568 30.3182 183.5 30.1818C184.432 30.0341 185.108 29.8182 185.528 29.5341C185.949 29.25 186.159 28.8295 186.159 28.2727V28.1705C186.159 27.0909 185.818 26.2557 185.136 25.6648C184.466 25.0739 183.511 24.7784 182.273 24.7784C180.966 24.7784 179.926 25.0682 179.153 25.6477C178.381 26.2159 177.869 26.9318 177.619 27.7955L170.903 27.25C171.244 25.6591 171.915 24.2841 172.915 23.125C173.915 21.9545 175.205 21.0568 176.784 20.4318C178.375 19.7955 180.216 19.4773 182.307 19.4773C183.761 19.4773 185.153 19.6477 186.483 19.9886C187.824 20.3295 189.011 20.858 190.045 21.5739C191.091 22.2898 191.915 23.2102 192.517 24.3352C193.119 25.4489 193.42 26.7841 193.42 28.3409V46H186.534V42.3693H186.33C185.909 43.1875 185.347 43.9091 184.642 44.5341C183.938 45.1477 183.091 45.6307 182.102 45.983C181.114 46.3239 179.972 46.4943 178.676 46.4943ZM180.756 41.483C181.824 41.483 182.767 41.2727 183.585 40.8523C184.403 40.4205 185.045 39.8409 185.511 39.1136C185.977 38.3864 186.21 37.5625 186.21 36.642V33.8636C185.983 34.0114 185.67 34.1477 185.273 34.2727C184.886 34.3864 184.449 34.4943 183.96 34.5966C183.472 34.6875 182.983 34.7727 182.494 34.8523C182.006 34.9205 181.562 34.983 181.165 35.0398C180.313 35.1648 179.568 35.3636 178.932 35.6364C178.295 35.9091 177.801 36.2784 177.449 36.7443C177.097 37.1989 176.92 37.767 176.92 38.4489C176.92 39.4375 177.278 40.1932 177.994 40.7159C178.722 41.2273 179.642 41.483 180.756 41.483ZM213.134 19.8182V25.2727H196.974V19.8182H213.134ZM200.673 46V17.9261C200.673 16.0284 201.043 14.4545 201.781 13.2045C202.531 11.9545 203.554 11.017 204.849 10.392C206.145 9.76704 207.616 9.45454 209.264 9.45454C210.378 9.45454 211.395 9.53977 212.315 9.71023C213.247 9.88068 213.94 10.0341 214.395 10.1705L213.099 15.625C212.815 15.5341 212.463 15.4489 212.043 15.3693C211.634 15.2898 211.213 15.25 210.781 15.25C209.713 15.25 208.969 15.5 208.548 16C208.128 16.4886 207.918 17.1761 207.918 18.0625V46H200.673ZM228.462 46.5114C225.814 46.5114 223.524 45.9489 221.592 44.8239C219.672 43.6875 218.189 42.108 217.143 40.0852C216.098 38.0511 215.575 35.6932 215.575 33.0114C215.575 30.3068 216.098 27.9432 217.143 25.9205C218.189 23.8864 219.672 22.3068 221.592 21.1818C223.524 20.0455 225.814 19.4773 228.462 19.4773C231.109 19.4773 233.393 20.0455 235.314 21.1818C237.246 22.3068 238.734 23.8864 239.78 25.9205C240.825 27.9432 241.348 30.3068 241.348 33.0114C241.348 35.6932 240.825 38.0511 239.78 40.0852C238.734 42.108 237.246 43.6875 235.314 44.8239C233.393 45.9489 231.109 46.5114 228.462 46.5114ZM228.496 40.8864C229.7 40.8864 230.706 40.5455 231.513 39.8636C232.32 39.1705 232.928 38.2273 233.337 37.0341C233.757 35.8409 233.967 34.483 233.967 32.9602C233.967 31.4375 233.757 30.0795 233.337 28.8864C232.928 27.6932 232.32 26.75 231.513 26.0568C230.706 25.3636 229.7 25.017 228.496 25.017C227.28 25.017 226.257 25.3636 225.428 26.0568C224.609 26.75 223.99 27.6932 223.57 28.8864C223.161 30.0795 222.956 31.4375 222.956 32.9602C222.956 34.483 223.161 35.8409 223.57 37.0341C223.99 38.2273 224.609 39.1705 225.428 39.8636C226.257 40.5455 227.28 40.8864 228.496 40.8864ZM246.07 46V19.8182H253.109V24.3864H253.382C253.859 22.7614 254.661 21.5341 255.786 20.7045C256.911 19.8636 258.206 19.4432 259.672 19.4432C260.036 19.4432 260.428 19.4659 260.848 19.5114C261.268 19.5568 261.638 19.6193 261.956 19.6989V26.142C261.615 26.0398 261.143 25.9489 260.541 25.8693C259.939 25.7898 259.388 25.75 258.888 25.75C257.82 25.75 256.865 25.983 256.024 26.4489C255.195 26.9034 254.536 27.5398 254.047 28.358C253.57 29.1761 253.331 30.1193 253.331 31.1875V46H246.07ZM265.71 46V19.8182H272.631V24.4375H272.938C273.483 22.9034 274.392 21.6932 275.665 20.8068C276.938 19.9205 278.46 19.4773 280.233 19.4773C282.028 19.4773 283.557 19.9261 284.818 20.8239C286.08 21.7102 286.92 22.9148 287.341 24.4375H287.614C288.148 22.9375 289.114 21.7386 290.511 20.8409C291.92 19.9318 293.585 19.4773 295.506 19.4773C297.949 19.4773 299.932 20.2557 301.455 21.8125C302.989 23.358 303.756 25.5511 303.756 28.392V46H296.511V29.8239C296.511 28.3693 296.125 27.2784 295.352 26.5511C294.58 25.8239 293.614 25.4602 292.455 25.4602C291.136 25.4602 290.108 25.8807 289.369 26.7216C288.631 27.5511 288.261 28.6477 288.261 30.0114V46H281.222V29.6705C281.222 28.3864 280.852 27.3636 280.114 26.6023C279.386 25.8409 278.426 25.4602 277.233 25.4602C276.426 25.4602 275.699 25.6648 275.051 26.0739C274.415 26.4716 273.909 27.0341 273.534 27.7614C273.159 28.4773 272.972 29.3182 272.972 30.2841V46H265.71ZM316.957 46.4943C315.287 46.4943 313.798 46.2045 312.491 45.625C311.185 45.0341 310.151 44.1648 309.389 43.017C308.639 41.858 308.264 40.4148 308.264 38.6875C308.264 37.233 308.531 36.0114 309.065 35.0227C309.599 34.0341 310.327 33.2386 311.247 32.6364C312.168 32.0341 313.213 31.5795 314.384 31.2727C315.565 30.9659 316.804 30.75 318.099 30.625C319.622 30.4659 320.849 30.3182 321.781 30.1818C322.713 30.0341 323.389 29.8182 323.81 29.5341C324.23 29.25 324.44 28.8295 324.44 28.2727V28.1705C324.44 27.0909 324.099 26.2557 323.418 25.6648C322.747 25.0739 321.793 24.7784 320.554 24.7784C319.247 24.7784 318.207 25.0682 317.435 25.6477C316.662 26.2159 316.151 26.9318 315.901 27.7955L309.185 27.25C309.526 25.6591 310.196 24.2841 311.196 23.125C312.196 21.9545 313.486 21.0568 315.065 20.4318C316.656 19.7955 318.497 19.4773 320.588 19.4773C322.043 19.4773 323.435 19.6477 324.764 19.9886C326.105 20.3295 327.293 20.858 328.327 21.5739C329.372 22.2898 330.196 23.2102 330.798 24.3352C331.401 25.4489 331.702 26.7841 331.702 28.3409V46H324.815V42.3693H324.611C324.19 43.1875 323.628 43.9091 322.923 44.5341C322.219 45.1477 321.372 45.6307 320.384 45.983C319.395 46.3239 318.253 46.4943 316.957 46.4943ZM319.037 41.483C320.105 41.483 321.048 41.2727 321.866 40.8523C322.685 40.4205 323.327 39.8409 323.793 39.1136C324.259 38.3864 324.491 37.5625 324.491 36.642V33.8636C324.264 34.0114 323.952 34.1477 323.554 34.2727C323.168 34.3864 322.73 34.4943 322.241 34.5966C321.753 34.6875 321.264 34.7727 320.776 34.8523C320.287 34.9205 319.844 34.983 319.446 35.0398C318.594 35.1648 317.849 35.3636 317.213 35.6364C316.577 35.9091 316.082 36.2784 315.73 36.7443C315.378 37.1989 315.202 37.767 315.202 38.4489C315.202 39.4375 315.56 40.1932 316.276 40.7159C317.003 41.2273 317.923 41.483 319.037 41.483ZM23.5455 104.426C21.5568 104.426 19.7557 103.915 18.142 102.892C16.5398 101.858 15.267 100.341 14.3239 98.3409C13.392 96.3295 12.9261 93.8636 12.9261 90.9432C12.9261 87.9432 13.4091 85.4489 14.375 83.4602C15.3409 81.4602 16.625 79.9659 18.2273 78.9773C19.8409 77.9773 21.608 77.4773 23.5284 77.4773C24.9943 77.4773 26.2159 77.7273 27.1932 78.2273C28.1818 78.7159 28.9773 79.3295 29.5795 80.0682C30.1932 80.7955 30.6591 81.5114 30.9773 82.2159H31.1989V69.0909H38.4432V104H31.2841V99.8068H30.9773C30.6364 100.534 30.1534 101.256 29.5284 101.972C28.9148 102.676 28.1136 103.261 27.125 103.727C26.1477 104.193 24.9545 104.426 23.5455 104.426ZM25.8466 98.6477C27.017 98.6477 28.0057 98.3295 28.8125 97.6932C29.6307 97.0455 30.2557 96.142 30.6875 94.983C31.1307 93.8239 31.3523 92.4659 31.3523 90.9091C31.3523 89.3523 31.1364 88 30.7045 86.8523C30.2727 85.7045 29.6477 84.8182 28.8295 84.1932C28.0114 83.5682 27.017 83.2557 25.8466 83.2557C24.6534 83.2557 23.6477 83.5795 22.8295 84.2273C22.0114 84.875 21.392 85.7727 20.9716 86.9205C20.5511 88.0682 20.3409 89.3977 20.3409 90.9091C20.3409 92.4318 20.5511 93.7784 20.9716 94.9489C21.4034 96.108 22.0227 97.017 22.8295 97.6761C23.6477 98.3239 24.6534 98.6477 25.8466 98.6477ZM56.3452 104.511C53.652 104.511 51.3338 103.966 49.3906 102.875C47.4588 101.773 45.9702 100.216 44.9247 98.2045C43.8793 96.1818 43.3565 93.7898 43.3565 91.0284C43.3565 88.3352 43.8793 85.9716 44.9247 83.9375C45.9702 81.9034 47.4418 80.3182 49.3395 79.1818C51.2486 78.0455 53.4872 77.4773 56.0554 77.4773C57.7827 77.4773 59.3906 77.7557 60.8793 78.3125C62.3793 78.858 63.6861 79.6818 64.7997 80.7841C65.9247 81.8864 66.7997 83.2727 67.4247 84.9432C68.0497 86.6023 68.3622 88.5455 68.3622 90.7727V92.767H46.2543V88.267H61.527C61.527 87.2216 61.2997 86.2955 60.8452 85.4886C60.3906 84.6818 59.7599 84.0511 58.9531 83.5966C58.1577 83.1307 57.2315 82.8977 56.1747 82.8977C55.0724 82.8977 54.0952 83.1534 53.2429 83.6648C52.402 84.1648 51.7429 84.8409 51.2656 85.6932C50.7884 86.5341 50.544 87.4716 50.5327 88.5057V92.7841C50.5327 94.0795 50.7713 95.1989 51.2486 96.142C51.7372 97.0852 52.4247 97.8125 53.3111 98.3239C54.1974 98.8352 55.2486 99.0909 56.4645 99.0909C57.2713 99.0909 58.0099 98.9773 58.6804 98.75C59.3509 98.5227 59.9247 98.1818 60.402 97.7273C60.8793 97.2727 61.2429 96.7159 61.4929 96.0568L68.2088 96.5C67.8679 98.1136 67.169 99.5227 66.1122 100.727C65.0668 101.92 63.7145 102.852 62.0554 103.523C60.4077 104.182 58.5043 104.511 56.3452 104.511ZM345.483 104.426C343.494 104.426 341.693 103.915 340.08 102.892C338.477 101.858 337.205 100.341 336.261 98.3409C335.33 96.3295 334.864 93.8636 334.864 90.9432C334.864 87.9432 335.347 85.4489 336.312 83.4602C337.278 81.4602 338.563 79.9659 340.165 78.9773C341.778 77.9773 343.545 77.4773 345.466 77.4773C346.932 77.4773 348.153 77.7273 349.131 78.2273C350.119 78.7159 350.915 79.3295 351.517 80.0682C352.131 80.7955 352.597 81.5114 352.915 82.2159H353.136V69.0909H360.381V104H353.222V99.8068H352.915C352.574 100.534 352.091 101.256 351.466 101.972C350.852 102.676 350.051 103.261 349.062 103.727C348.085 104.193 346.892 104.426 345.483 104.426ZM347.784 98.6477C348.955 98.6477 349.943 98.3295 350.75 97.6932C351.568 97.0455 352.193 96.142 352.625 94.983C353.068 93.8239 353.29 92.4659 353.29 90.9091C353.29 89.3523 353.074 88 352.642 86.8523C352.21 85.7045 351.585 84.8182 350.767 84.1932C349.949 83.5682 348.955 83.2557 347.784 83.2557C346.591 83.2557 345.585 83.5795 344.767 84.2273C343.949 84.875 343.33 85.7727 342.909 86.9205C342.489 88.0682 342.278 89.3977 342.278 90.9091C342.278 92.4318 342.489 93.7784 342.909 94.9489C343.341 96.108 343.96 97.017 344.767 97.6761C345.585 98.3239 346.591 98.6477 347.784 98.6477ZM378.283 104.511C375.589 104.511 373.271 103.966 371.328 102.875C369.396 101.773 367.908 100.216 366.862 98.2045C365.817 96.1818 365.294 93.7898 365.294 91.0284C365.294 88.3352 365.817 85.9716 366.862 83.9375C367.908 81.9034 369.379 80.3182 371.277 79.1818C373.186 78.0455 375.425 77.4773 377.993 77.4773C379.72 77.4773 381.328 77.7557 382.817 78.3125C384.317 78.858 385.624 79.6818 386.737 80.7841C387.862 81.8864 388.737 83.2727 389.362 84.9432C389.987 86.6023 390.3 88.5455 390.3 90.7727V92.767H368.192V88.267H383.464C383.464 87.2216 383.237 86.2955 382.783 85.4886C382.328 84.6818 381.697 84.0511 380.891 83.5966C380.095 83.1307 379.169 82.8977 378.112 82.8977C377.01 82.8977 376.033 83.1534 375.18 83.6648C374.339 84.1648 373.68 84.8409 373.203 85.6932C372.726 86.5341 372.482 87.4716 372.47 88.5057V92.7841C372.47 94.0795 372.709 95.1989 373.186 96.142C373.675 97.0852 374.362 97.8125 375.249 98.3239C376.135 98.8352 377.186 99.0909 378.402 99.0909C379.209 99.0909 379.947 98.9773 380.618 98.75C381.288 98.5227 381.862 98.1818 382.339 97.7273C382.817 97.2727 383.18 96.7159 383.43 96.0568L390.146 96.5C389.805 98.1136 389.107 99.5227 388.05 100.727C387.004 101.92 385.652 102.852 383.993 103.523C382.345 104.182 380.442 104.511 378.283 104.511ZM13.8977 162V135.818H20.8182V140.438H21.125C21.6705 138.903 22.5795 137.693 23.8523 136.807C25.125 135.92 26.6477 135.477 28.4205 135.477C30.2159 135.477 31.7443 135.926 33.0057 136.824C34.267 137.71 35.108 138.915 35.5284 140.438H35.8011C36.3352 138.938 37.3011 137.739 38.6989 136.841C40.108 135.932 41.7727 135.477 43.6932 135.477C46.1364 135.477 48.1193 136.256 49.642 137.812C51.1761 139.358 51.9432 141.551 51.9432 144.392V162H44.6989V145.824C44.6989 144.369 44.3125 143.278 43.5398 142.551C42.767 141.824 41.8011 141.46 40.642 141.46C39.3239 141.46 38.2955 141.881 37.5568 142.722C36.8182 143.551 36.4489 144.648 36.4489 146.011V162H29.4091V145.67C29.4091 144.386 29.0398 143.364 28.3011 142.602C27.5739 141.841 26.6136 141.46 25.4205 141.46C24.6136 141.46 23.8864 141.665 23.2386 142.074C22.6023 142.472 22.0966 143.034 21.7216 143.761C21.3466 144.477 21.1591 145.318 21.1591 146.284V162H13.8977ZM69.6108 162.511C66.9176 162.511 64.5994 161.966 62.6562 160.875C60.7244 159.773 59.2358 158.216 58.1903 156.205C57.1449 154.182 56.6222 151.79 56.6222 149.028C56.6222 146.335 57.1449 143.972 58.1903 141.938C59.2358 139.903 60.7074 138.318 62.6051 137.182C64.5142 136.045 66.7528 135.477 69.321 135.477C71.0483 135.477 72.6563 135.756 74.1449 136.312C75.6449 136.858 76.9517 137.682 78.0653 138.784C79.1903 139.886 80.0653 141.273 80.6903 142.943C81.3153 144.602 81.6278 146.545 81.6278 148.773V150.767H59.5199V146.267H74.7926C74.7926 145.222 74.5653 144.295 74.1108 143.489C73.6563 142.682 73.0256 142.051 72.2188 141.597C71.4233 141.131 70.4972 140.898 69.4403 140.898C68.3381 140.898 67.3608 141.153 66.5085 141.665C65.6676 142.165 65.0085 142.841 64.5312 143.693C64.054 144.534 63.8097 145.472 63.7983 146.506V150.784C63.7983 152.08 64.0369 153.199 64.5142 154.142C65.0028 155.085 65.6903 155.812 66.5767 156.324C67.4631 156.835 68.5142 157.091 69.7301 157.091C70.5369 157.091 71.2756 156.977 71.946 156.75C72.6165 156.523 73.1903 156.182 73.6676 155.727C74.1449 155.273 74.5085 154.716 74.7585 154.057L81.4744 154.5C81.1335 156.114 80.4347 157.523 79.3778 158.727C78.3324 159.92 76.9801 160.852 75.321 161.523C73.6733 162.182 71.7699 162.511 69.6108 162.511ZM96.0142 162.426C94.0256 162.426 92.2244 161.915 90.6108 160.892C89.0085 159.858 87.7358 158.341 86.7926 156.341C85.8608 154.33 85.3949 151.864 85.3949 148.943C85.3949 145.943 85.8778 143.449 86.8438 141.46C87.8097 139.46 89.0938 137.966 90.696 136.977C92.3097 135.977 94.0767 135.477 95.9972 135.477C97.4631 135.477 98.6847 135.727 99.6619 136.227C100.651 136.716 101.446 137.33 102.048 138.068C102.662 138.795 103.128 139.511 103.446 140.216H103.668V127.091H110.912V162H103.753V157.807H103.446C103.105 158.534 102.622 159.256 101.997 159.972C101.384 160.676 100.582 161.261 99.5938 161.727C98.6165 162.193 97.4233 162.426 96.0142 162.426ZM98.3153 156.648C99.4858 156.648 100.474 156.33 101.281 155.693C102.099 155.045 102.724 154.142 103.156 152.983C103.599 151.824 103.821 150.466 103.821 148.909C103.821 147.352 103.605 146 103.173 144.852C102.741 143.705 102.116 142.818 101.298 142.193C100.48 141.568 99.4858 141.256 98.3153 141.256C97.1222 141.256 96.1165 141.58 95.2983 142.227C94.4801 142.875 93.8608 143.773 93.4403 144.92C93.0199 146.068 92.8097 147.398 92.8097 148.909C92.8097 150.432 93.0199 151.778 93.4403 152.949C93.8722 154.108 94.4915 155.017 95.2983 155.676C96.1165 156.324 97.1222 156.648 98.3153 156.648ZM116.882 162V135.818H124.143V162H116.882ZM120.53 132.443C119.45 132.443 118.524 132.085 117.751 131.369C116.99 130.642 116.609 129.773 116.609 128.761C116.609 127.761 116.99 126.903 117.751 126.188C118.524 125.46 119.45 125.097 120.53 125.097C121.609 125.097 122.53 125.46 123.291 126.188C124.064 126.903 124.45 127.761 124.45 128.761C124.45 129.773 124.064 130.642 123.291 131.369C122.53 132.085 121.609 132.443 120.53 132.443ZM141.79 162.511C139.142 162.511 136.852 161.949 134.92 160.824C133 159.687 131.517 158.108 130.472 156.085C129.426 154.051 128.903 151.693 128.903 149.011C128.903 146.307 129.426 143.943 130.472 141.92C131.517 139.886 133 138.307 134.92 137.182C136.852 136.045 139.142 135.477 141.79 135.477C144.438 135.477 146.722 136.045 148.642 137.182C150.574 138.307 152.062 139.886 153.108 141.92C154.153 143.943 154.676 146.307 154.676 149.011C154.676 151.693 154.153 154.051 153.108 156.085C152.062 158.108 150.574 159.687 148.642 160.824C146.722 161.949 144.438 162.511 141.79 162.511ZM141.824 156.886C143.028 156.886 144.034 156.545 144.841 155.864C145.648 155.17 146.256 154.227 146.665 153.034C147.085 151.841 147.295 150.483 147.295 148.96C147.295 147.438 147.085 146.08 146.665 144.886C146.256 143.693 145.648 142.75 144.841 142.057C144.034 141.364 143.028 141.017 141.824 141.017C140.608 141.017 139.585 141.364 138.756 142.057C137.938 142.75 137.318 143.693 136.898 144.886C136.489 146.08 136.284 147.438 136.284 148.96C136.284 150.483 136.489 151.841 136.898 153.034C137.318 154.227 137.938 155.17 138.756 155.864C139.585 156.545 140.608 156.886 141.824 156.886ZM181.182 143.284L174.534 143.693C174.42 143.125 174.176 142.614 173.801 142.159C173.426 141.693 172.932 141.324 172.318 141.051C171.716 140.767 170.994 140.625 170.153 140.625C169.028 140.625 168.08 140.864 167.307 141.341C166.534 141.807 166.148 142.432 166.148 143.216C166.148 143.841 166.398 144.369 166.898 144.801C167.398 145.233 168.256 145.58 169.472 145.841L174.21 146.795C176.756 147.318 178.653 148.159 179.903 149.318C181.153 150.477 181.778 152 181.778 153.886C181.778 155.602 181.273 157.108 180.261 158.403C179.261 159.699 177.886 160.71 176.136 161.438C174.398 162.153 172.392 162.511 170.119 162.511C166.653 162.511 163.892 161.79 161.835 160.347C159.79 158.892 158.591 156.915 158.239 154.415L165.381 154.04C165.597 155.097 166.119 155.903 166.949 156.46C167.778 157.006 168.841 157.278 170.136 157.278C171.409 157.278 172.432 157.034 173.205 156.545C173.989 156.045 174.386 155.403 174.398 154.619C174.386 153.96 174.108 153.42 173.562 153C173.017 152.568 172.176 152.239 171.04 152.011L166.506 151.108C163.949 150.597 162.045 149.71 160.795 148.449C159.557 147.187 158.938 145.58 158.938 143.625C158.938 141.943 159.392 140.494 160.301 139.278C161.222 138.062 162.511 137.125 164.17 136.466C165.841 135.807 167.795 135.477 170.034 135.477C173.341 135.477 175.943 136.176 177.841 137.574C179.75 138.972 180.864 140.875 181.182 143.284ZM190.595 162.443C189.47 162.443 188.504 162.045 187.697 161.25C186.902 160.443 186.504 159.477 186.504 158.352C186.504 157.239 186.902 156.284 187.697 155.489C188.504 154.693 189.47 154.295 190.595 154.295C191.686 154.295 192.641 154.693 193.459 155.489C194.277 156.284 194.686 157.239 194.686 158.352C194.686 159.102 194.493 159.79 194.107 160.415C193.732 161.028 193.237 161.523 192.624 161.898C192.01 162.261 191.334 162.443 190.595 162.443Z" fill="#16164F"/>
<path d="M84.2102 104V77.8182H91.1307V82.4375H91.4375C91.983 80.9034 92.892 79.6932 94.1648 78.8068C95.4375 77.9205 96.9602 77.4773 98.733 77.4773C100.528 77.4773 102.057 77.9261 103.318 78.8239C104.58 79.7102 105.42 80.9148 105.841 82.4375H106.114C106.648 80.9375 107.614 79.7386 109.011 78.8409C110.42 77.9318 112.085 77.4773 114.006 77.4773C116.449 77.4773 118.432 78.2557 119.955 79.8125C121.489 81.358 122.256 83.5511 122.256 86.392V104H115.011V87.8239C115.011 86.3693 114.625 85.2784 113.852 84.5511C113.08 83.8239 112.114 83.4602 110.955 83.4602C109.636 83.4602 108.608 83.8807 107.869 84.7216C107.131 85.5511 106.761 86.6477 106.761 88.0114V104H99.7216V87.6705C99.7216 86.3864 99.3523 85.3636 98.6136 84.6023C97.8864 83.8409 96.9261 83.4602 95.733 83.4602C94.9261 83.4602 94.1989 83.6648 93.5511 84.0739C92.9148 84.4716 92.4091 85.0341 92.0341 85.7614C91.6591 86.4773 91.4716 87.3182 91.4716 88.2841V104H84.2102ZM139.821 104.511C137.173 104.511 134.884 103.949 132.952 102.824C131.031 101.687 129.548 100.108 128.503 98.0852C127.457 96.0511 126.935 93.6932 126.935 91.0114C126.935 88.3068 127.457 85.9432 128.503 83.9205C129.548 81.8864 131.031 80.3068 132.952 79.1818C134.884 78.0455 137.173 77.4773 139.821 77.4773C142.469 77.4773 144.753 78.0455 146.673 79.1818C148.605 80.3068 150.094 81.8864 151.139 83.9205C152.185 85.9432 152.707 88.3068 152.707 91.0114C152.707 93.6932 152.185 96.0511 151.139 98.0852C150.094 100.108 148.605 101.687 146.673 102.824C144.753 103.949 142.469 104.511 139.821 104.511ZM139.855 98.8864C141.06 98.8864 142.065 98.5455 142.872 97.8636C143.679 97.1705 144.287 96.2273 144.696 95.0341C145.116 93.8409 145.327 92.483 145.327 90.9602C145.327 89.4375 145.116 88.0795 144.696 86.8864C144.287 85.6932 143.679 84.75 142.872 84.0568C142.065 83.3636 141.06 83.017 139.855 83.017C138.639 83.017 137.616 83.3636 136.787 84.0568C135.969 84.75 135.349 85.6932 134.929 86.8864C134.52 88.0795 134.315 89.4375 134.315 90.9602C134.315 92.483 134.52 93.8409 134.929 95.0341C135.349 96.2273 135.969 97.1705 136.787 97.8636C137.616 98.5455 138.639 98.8864 139.855 98.8864ZM164.69 88.8636V104H157.429V77.8182H164.349V82.4375H164.656C165.236 80.9148 166.207 79.7102 167.571 78.8239C168.935 77.9261 170.588 77.4773 172.531 77.4773C174.349 77.4773 175.935 77.875 177.287 78.6705C178.639 79.4659 179.69 80.6023 180.44 82.0795C181.19 83.5455 181.565 85.2955 181.565 87.3295V104H174.304V88.625C174.315 87.0227 173.906 85.7727 173.077 84.875C172.247 83.9659 171.105 83.5114 169.651 83.5114C168.673 83.5114 167.81 83.7216 167.06 84.142C166.321 84.5625 165.741 85.1761 165.321 85.983C164.912 86.7784 164.702 87.7386 164.69 88.8636ZM187.288 104V77.8182H194.55V104H187.288ZM190.936 74.4432C189.857 74.4432 188.93 74.0852 188.158 73.3693C187.396 72.642 187.016 71.7727 187.016 70.7614C187.016 69.7614 187.396 68.9034 188.158 68.1875C188.93 67.4602 189.857 67.0966 190.936 67.0966C192.016 67.0966 192.936 67.4602 193.697 68.1875C194.47 68.9034 194.857 69.7614 194.857 70.7614C194.857 71.7727 194.47 72.642 193.697 73.3693C192.936 74.0852 192.016 74.4432 190.936 74.4432ZM214.293 77.8182V83.2727H198.526V77.8182H214.293ZM202.105 71.5455H209.366V95.9545C209.366 96.625 209.469 97.1477 209.673 97.5227C209.878 97.8864 210.162 98.142 210.526 98.2898C210.901 98.4375 211.332 98.5114 211.821 98.5114C212.162 98.5114 212.503 98.483 212.844 98.4261C213.185 98.358 213.446 98.3068 213.628 98.2727L214.77 103.676C214.406 103.79 213.895 103.92 213.236 104.068C212.577 104.227 211.776 104.324 210.832 104.358C209.082 104.426 207.548 104.193 206.23 103.659C204.923 103.125 203.906 102.295 203.179 101.17C202.452 100.045 202.094 98.625 202.105 96.9091V71.5455ZM230.571 104.511C227.923 104.511 225.634 103.949 223.702 102.824C221.781 101.687 220.298 100.108 219.253 98.0852C218.207 96.0511 217.685 93.6932 217.685 91.0114C217.685 88.3068 218.207 85.9432 219.253 83.9205C220.298 81.8864 221.781 80.3068 223.702 79.1818C225.634 78.0455 227.923 77.4773 230.571 77.4773C233.219 77.4773 235.503 78.0455 237.423 79.1818C239.355 80.3068 240.844 81.8864 241.889 83.9205C242.935 85.9432 243.457 88.3068 243.457 91.0114C243.457 93.6932 242.935 96.0511 241.889 98.0852C240.844 100.108 239.355 101.687 237.423 102.824C235.503 103.949 233.219 104.511 230.571 104.511ZM230.605 98.8864C231.81 98.8864 232.815 98.5455 233.622 97.8636C234.429 97.1705 235.037 96.2273 235.446 95.0341C235.866 93.8409 236.077 92.483 236.077 90.9602C236.077 89.4375 235.866 88.0795 235.446 86.8864C235.037 85.6932 234.429 84.75 233.622 84.0568C232.815 83.3636 231.81 83.017 230.605 83.017C229.389 83.017 228.366 83.3636 227.537 84.0568C226.719 84.75 226.099 85.6932 225.679 86.8864C225.27 88.0795 225.065 89.4375 225.065 90.9602C225.065 92.483 225.27 93.8409 225.679 95.0341C226.099 96.2273 226.719 97.1705 227.537 97.8636C228.366 98.5455 229.389 98.8864 230.605 98.8864ZM248.179 104V77.8182H255.219V82.3864H255.491C255.969 80.7614 256.77 79.5341 257.895 78.7045C259.02 77.8636 260.315 77.4432 261.781 77.4432C262.145 77.4432 262.537 77.4659 262.957 77.5114C263.378 77.5568 263.747 77.6193 264.065 77.6989V84.142C263.724 84.0398 263.253 83.9489 262.651 83.8693C262.048 83.7898 261.497 83.75 260.997 83.75C259.929 83.75 258.974 83.983 258.134 84.4489C257.304 84.9034 256.645 85.5398 256.156 86.358C255.679 87.1761 255.44 88.1193 255.44 89.1875V104H248.179ZM278.533 104.511C275.839 104.511 273.521 103.966 271.578 102.875C269.646 101.773 268.158 100.216 267.112 98.2045C266.067 96.1818 265.544 93.7898 265.544 91.0284C265.544 88.3352 266.067 85.9716 267.112 83.9375C268.158 81.9034 269.629 80.3182 271.527 79.1818C273.436 78.0455 275.675 77.4773 278.243 77.4773C279.97 77.4773 281.578 77.7557 283.067 78.3125C284.567 78.858 285.874 79.6818 286.987 80.7841C288.112 81.8864 288.987 83.2727 289.612 84.9432C290.237 86.6023 290.55 88.5455 290.55 90.7727V92.767H268.442V88.267H283.714C283.714 87.2216 283.487 86.2955 283.033 85.4886C282.578 84.6818 281.947 84.0511 281.141 83.5966C280.345 83.1307 279.419 82.8977 278.362 82.8977C277.26 82.8977 276.283 83.1534 275.43 83.6648C274.589 84.1648 273.93 84.8409 273.453 85.6932C272.976 86.5341 272.732 87.4716 272.72 88.5057V92.7841C272.72 94.0795 272.959 95.1989 273.436 96.142C273.925 97.0852 274.612 97.8125 275.499 98.3239C276.385 98.8352 277.436 99.0909 278.652 99.0909C279.459 99.0909 280.197 98.9773 280.868 98.75C281.538 98.5227 282.112 98.1818 282.589 97.7273C283.067 97.2727 283.43 96.7159 283.68 96.0568L290.396 96.5C290.055 98.1136 289.357 99.5227 288.3 100.727C287.254 101.92 285.902 102.852 284.243 103.523C282.595 104.182 280.692 104.511 278.533 104.511ZM307.118 104.511C304.47 104.511 302.18 103.949 300.249 102.824C298.328 101.687 296.845 100.108 295.8 98.0852C294.754 96.0511 294.232 93.6932 294.232 91.0114C294.232 88.3068 294.754 85.9432 295.8 83.9205C296.845 81.8864 298.328 80.3068 300.249 79.1818C302.18 78.0455 304.47 77.4773 307.118 77.4773C309.766 77.4773 312.05 78.0455 313.97 79.1818C315.902 80.3068 317.391 81.8864 318.436 83.9205C319.482 85.9432 320.004 88.3068 320.004 91.0114C320.004 93.6932 319.482 96.0511 318.436 98.0852C317.391 100.108 315.902 101.687 313.97 102.824C312.05 103.949 309.766 104.511 307.118 104.511ZM307.152 98.8864C308.357 98.8864 309.362 98.5455 310.169 97.8636C310.976 97.1705 311.584 96.2273 311.993 95.0341C312.413 93.8409 312.624 92.483 312.624 90.9602C312.624 89.4375 312.413 88.0795 311.993 86.8864C311.584 85.6932 310.976 84.75 310.169 84.0568C309.362 83.3636 308.357 83.017 307.152 83.017C305.936 83.017 304.913 83.3636 304.084 84.0568C303.266 84.75 302.646 85.6932 302.226 86.8864C301.817 88.0795 301.612 89.4375 301.612 90.9602C301.612 92.483 301.817 93.8409 302.226 95.0341C302.646 96.2273 303.266 97.1705 304.084 97.8636C304.913 98.5455 305.936 98.8864 307.152 98.8864Z" fill="#FFC000"/>
</svg>
