<svg width="86" height="80" viewBox="0 0 86 80" fill="none" xmlns="http://www.w3.org/2000/svg">
<rect opacity="0.5" width="85.2196" height="80" rx="24" fill="#FFC000"/>
<path d="M37.3636 26.0147C37.2073 25.7646 37.1297 25.562 36.9884 25.4232C34.5148 22.9512 32.0366 20.4839 29.5538 18.0211C29.1373 17.6071 29.0536 16.7167 29.4 16.3353C29.7914 15.9076 30.538 15.9476 31.0257 16.4354C34.0913 19.4892 37.1514 22.5477 40.2061 25.6108C40.485 25.8922 40.6651 25.9122 40.9177 25.6558C42.2933 24.2589 43.6539 22.8483 45.0446 21.4676C46.2126 20.3096 47.4206 19.1904 48.5987 18.0436C49.1677 17.4896 49.6942 16.8931 50.2757 16.3528C50.4748 16.1595 50.7388 16.0472 51.0161 16.0378C51.2935 16.0283 51.5645 16.1223 51.7764 16.3015C52.1628 16.6167 52.2003 17.3345 51.8051 17.7885C51.41 18.2424 50.9873 18.6539 50.5671 19.0753C48.4703 21.1779 46.3731 23.2793 44.2755 25.3794C44.1504 25.5045 44.0916 25.7071 44.0016 25.8796C44.1829 25.9322 44.363 26.031 44.5443 26.031C50.2969 26.041 56.0496 26.031 61.8022 26.0585C62.5187 26.0585 63.3416 26.0585 63.9281 26.3911C65.2125 27.1102 65.9628 28.267 65.9616 29.8289C65.9557 39.2949 65.9524 48.7604 65.9515 58.2256C65.9515 59.3974 65.5464 60.3353 64.6497 61.2269C63.8443 62.026 63.024 62.1511 62.0523 62.1524C57.9671 62.1524 53.8819 62.1524 49.7967 62.1524C40.4591 62.1524 31.1216 62.1482 21.784 62.1398C21.0693 62.1384 20.3577 62.0477 19.6655 61.8697C18.6651 61.6096 18.1236 60.7967 17.7559 59.9063C17.5707 59.4331 17.4773 58.9289 17.4808 58.4207C17.465 50.0002 17.4608 41.5772 17.4683 33.1517C17.4683 31.9737 17.5296 30.7906 17.4533 29.6176C17.352 28.0894 19.1616 25.9822 20.9224 26.016C26.2773 26.116 31.6347 26.0585 36.9922 26.061C37.0647 26.0485 37.126 26.0397 37.3636 26.0147ZM37.0647 29.5688H21.8078C21.0162 29.5688 21.0124 29.5688 21.0111 30.3754C21.0111 32.4806 21.0111 34.5857 21.0111 36.6908C21.0111 43.7165 21.0111 50.743 21.0111 57.7704C21.0111 58.602 21.0111 58.602 21.8578 58.602C31.3004 58.602 40.7439 58.602 50.1881 58.602C50.896 58.602 51.6046 58.6095 52.3141 58.6245C52.7956 58.6358 53.0494 58.4657 53.0144 57.9329C52.9744 57.3077 52.9782 56.6824 52.9782 56.0571C52.9782 47.4699 52.9819 38.8797 52.9894 30.2866C52.9894 29.7164 52.8444 29.5451 52.2628 29.5476C47.1993 29.5788 42.1345 29.5688 37.0684 29.5688H37.0647ZM62.2361 58.582V29.5688C60.1377 29.5688 58.0967 29.5688 56.0558 29.5688C54.9165 29.5688 55.0216 29.4263 55.0203 30.6043C55.0095 39.3816 55.0016 48.1593 54.9966 56.9375C54.9966 57.4702 55.0428 58.003 55.0704 58.5782L62.2361 58.582Z" fill="white"/>
<path d="M56.9708 45.253C56.9596 44.2751 57.7337 43.4285 58.6491 43.4147C59.592 43.401 60.4724 44.2814 60.4824 45.2493C60.4924 46.2172 59.5908 47.1126 58.5916 47.1126C57.6874 47.1126 56.9821 46.3023 56.9708 45.253Z" fill="white"/>
<path d="M56.9658 40.1559C56.8996 39.0129 57.9663 38.3388 58.8017 38.3888C59.6771 38.4414 60.575 39.3255 60.4724 40.2397C60.3536 41.2952 59.7946 41.9467 58.4578 42.0242C57.7187 42.068 56.9433 41.065 56.9658 40.1559Z" fill="white"/>
<path d="M56.9903 35.1396C56.9903 34.0379 57.6418 33.4176 58.731 33.3889C59.659 33.3601 60.4656 34.2642 60.4818 35.1547C60.4931 35.99 59.689 36.9742 58.6748 36.9054C57.6118 36.8329 56.9865 36.2326 56.9903 35.1396Z" fill="white"/>
</svg>
