<svg width="24" height="24" viewBox="0 0 24 24" fill="none" xmlns="http://www.w3.org/2000/svg">
<path d="M20.25 19.1895L18.75 17.6895V15.75H17.25V18.3105L19.1895 20.25L20.25 19.1895Z" fill="white" stroke="white" stroke-width="0.5" stroke-linejoin="round"/>
<path d="M18 23.2501C16.9616 23.2501 15.9466 22.9422 15.0833 22.3653C14.2199 21.7884 13.547 20.9685 13.1496 20.0092C12.7523 19.0499 12.6483 17.9943 12.8509 16.9759C13.0534 15.9575 13.5535 15.022 14.2877 14.2878C15.0219 13.5535 15.9574 13.0535 16.9758 12.851C17.9942 12.6484 19.0498 12.7523 20.0091 13.1497C20.9684 13.5471 21.7883 14.22 22.3652 15.0833C22.9421 15.9467 23.25 16.9617 23.25 18.0001C23.2484 19.392 22.6948 20.7264 21.7106 21.7106C20.7263 22.6949 19.3919 23.2485 18 23.2501ZM18 14.2501C17.2583 14.2501 16.5333 14.47 15.9166 14.8821C15.2999 15.2941 14.8193 15.8798 14.5355 16.565C14.2516 17.2502 14.1774 18.0042 14.3221 18.7317C14.4667 19.4591 14.8239 20.1273 15.3483 20.6517C15.8728 21.1762 16.541 21.5333 17.2684 21.678C17.9958 21.8227 18.7498 21.7485 19.4351 21.4646C20.1203 21.1808 20.706 20.7001 21.118 20.0835C21.5301 19.4668 21.75 18.7418 21.75 18.0001C21.749 17.0058 21.3536 16.0526 20.6506 15.3495C19.9475 14.6465 18.9943 14.2511 18 14.2501ZM12 21.0001C9.61384 20.9975 7.32616 20.0485 5.63889 18.3612C3.95162 16.6739 3.00258 14.3862 3 12.0001H1.5C1.50318 14.7839 2.61044 17.4527 4.57889 19.4212C6.54733 21.3896 9.2162 22.4969 12 22.5001V21.0001ZM9 6.00008H5.3085C6.52215 4.64123 8.12011 3.68331 9.89056 3.25327C11.661 2.82324 13.5203 2.94141 15.2221 3.59212C16.9239 4.24283 18.3877 5.39534 19.4196 6.8969C20.4514 8.39846 21.0026 10.1782 21 12.0001H22.5C22.5033 9.91266 21.8834 7.87179 20.7196 6.13887C19.5559 4.40596 17.9013 3.05991 15.9678 2.27315C14.0343 1.48639 11.91 1.29474 9.86696 1.72274C7.82389 2.15075 5.95511 3.17893 4.5 4.67558V1.50008H3V7.50008H9V6.00008Z" fill="white" stroke="white" stroke-width="0.5" stroke-linejoin="round"/>
</svg>
